<?xml version="1.0" encoding="utf-8"?>
<svg xmlns="http://www.w3.org/2000/svg" xmlns:xlink="http://www.w3.org/1999/xlink" version= "1.1" width="6512px" height="3662px" viewBox="-1140 -788 6512 3662">
<g id="layer1">
<g style="fill:rgb(254,193,7); fill-opacity:1.0; stroke-linejoin: miter">
<path d="M341.84198,-237.73344L341.84198,-237.73244L341.84198,-237.73143L341.84198,-237.73042C139.42117,26.15635,10.853888,328.88956,-43.859898,670.46625L-43.8599,670.4672C-65.67793,668.6095,-87.832855,666.3557,-110.33124,666.8291C-358.50836,672.0507,-565.38184,757.79346,-731.024,920.9359C-728.2007,920.843,-725.37195,920.6201,-722.53754,920.68945C-537.89197,925.2082,-376.95404,975.0708,-239.71312,1069.8552L-239.71309,1069.8561L-239.71338,1069.857C-239.71353,1069.8563,-239.71368,1069.8562,-239.71387,1069.8564C-197.34433,1099.1177,-157.2344,1132.6735,-119.38391,1170.5239C-98.02817,1191.8796,-78.03946,1213.9545,-59.417946,1236.7484L-59.41854,1236.7494C-55.42591,1271.233,-50.578526,1305.4456,-44.87638,1339.3868C42.340443,1230.928,136.51749,1126.13,237.65479,1024.9929L237.65454,1024.9939C299.28842,963.35925,362.28186,904.3099,426.6348,847.84576C385.46497,816.16656,342.11252,788.6369,296.57748,765.2567L296.57452,765.2577C286.89676,679.59875,280.52603,592.8894,277.46234,505.1296L277.45956,505.1306C276.1602,467.8566,274.55386,430.38513,275.34854,392.74097C279.97034,173.80879,303.03836,-36.328426,341.84543,-237.73344L341.84198,-237.73244L341.84198,-237.73344L341.84198,-237.73244 Z M1905.8704,1397.7698L1905.8704,1397.7708L1905.8704,1397.7717L1905.8704,1397.7727L1905.8711,1397.7699L1905.8705,1397.7698L1905.8704,1397.7708L1905.8704,1397.7698L1905.8704,1397.7708 Z M228.26903,2065.1465L228.26903,2065.1475L228.26903,2065.1484L228.26903,2065.1494L228.26903,2065.1504C229.50076,2067.1497,230.73642,2069.1501,231.97597,2071.1487C230.73888,2069.1511,229.5042,2067.1504,228.27193,2065.1467L228.27135,2065.1477C228.2713,2065.1467,228.2713,2065.1465,228.2713,2065.1465L228.26903,2065.1475L228.26903,2065.1465L228.26903,2065.1475 Z M1980.7341,530.125L1980.7341,530.126L1980.7341,530.12695L1980.7341,530.1279C1911.9551,536.8899,1840.944,545.5462,1769.1539,562.6354C1426.9808,644.08765,1161.4113,796.401,970.8729,1013.0626C878.2488,1118.3857,813.746,1227.7535,777.3646,1341.1663C908.13104,1230.9601,1173.596,1062.1167,1238.4833,1141.3956C1331.3004,1254.7988,1113.2981,1491.6172,1028.4663,1585.8835C979.7509,1640.0168,834.7362,1730.2996,769.71014,1755.5585L769.7024,1755.5594L769.6947,1755.5604C750.36304,1761.373,729.9133,1764.2795,708.3455,1764.2795C707.9972,1764.2795,707.64856,1764.2786,707.2997,1764.2772L707.2926,1764.2782C707.2936,1764.2776,707.29456,1764.2772,707.2956,1764.2773L707.2885,1764.2783L707.2778,1764.2782L707.27814,1764.2792L707.2894,1764.2802C698.60474,1764.24,689.6892,1764.1152,680.69226,1762.7537C624.1145,1754.1914,578.9263,1727.6713,545.0855,1684.2354C534.1828,1670.2413,525.2848,1654.9198,518.25586,1638.3762L509.39435,1612.8639C508.66095,1610.2192,507.98218,1607.5574,507.35803,1604.8784C492.01343,1601.8853,480.86237,1598.9104,473.90485,1595.9541L473.9001,1595.9551L481.24356,1804.9082C453.35492,1804.4407,424.81015,1803.7714,396.04132,1799.5206C286.65326,1783.3579,189.3092,1747.1375,103.49384,1694.227C103.33307,1698.1909,103.10221,1702.1704,103.10558,1706.1692C103.149574,1758.327,109.7917,1808.3945,122.72765,1856.3724L146.27348,1926.0984C164.95013,1971.3127,188.6955,2013.1041,217.56229,2051.4326C221.06487,2056.0833,224.64853,2060.6353,228.26059,2065.129L228.26656,2065.1372C317.04297,2175.5723,433.45306,2243.3374,577.88184,2266.026C595.67267,2268.8206,613.45654,2271.2153,630.7781,2269.859C686.1718,2265.521,739.5476,2253.1865,791.4543,2238.5906L791.45734,2238.5916C919.47626,2203.1445,1042.8402,2149.0208,1147.1323,2058.6313C1272.9156,1949.6157,1330.4153,1830.1726,1392.657,1826.7736C1462.2795,1822.9716,1452.2516,1963.9004,1454.1447,2051.8354C1661.2455,1870.9458,1811.8157,1652.9236,1905.8551,1397.7689L1905.8704,1397.7698L1905.8633,1397.7689L1905.8638,1397.7699L1905.8705,1397.7698L1905.872,1397.7699L1905.8638,1397.7689L1905.8704,1397.7699L1905.8555,1397.768L1905.8696,1397.7689C1905.8662,1397.7635,1905.8628,1397.759,1905.8596,1397.7555C1946.2842,1288.07,1976.2622,1171.5231,1995.7936,1048.1149L2010.6322,827.5432C2008.0326,724.53284,1998.0732,625.39343,1980.7543,530.125L1980.7341,530.126L1980.7341,530.125L1980.7341,530.126 Z"/>
</g>
<g style="fill:rgb(103,57,182); fill-opacity:1.0; stroke-linejoin: miter">
<path d="M1100.7727,2095.595L1100.7764,2095.5957L1100.7776,2095.5967L1100.7727,2095.595 Z M1100.774,2095.596L1100.7811,2095.5967L1100.7775,2095.596 Z M1602.4932,56.940304Q676.82227,80.29967,62.151184,694.97095Q-552.5201,1309.6425,-575.8794,2235.313Q-575.87354,2237.3647,-575.8641,2239.4155Q-378.10635,1753.7759,-44.87697,1339.3875Q-27.813688,1440.9497,-0.5467377,1539.2697L86.87074,1790.9445Q111.18718,1848.1766,138.6,1903.3751L137.57886,1900.3512L138.603,1903.3839L138.60301,1903.3849L138.6062,1903.3933L138.6062,1903.3943L138.60594,1903.3936L146.27348,1926.0984Q150.84149,1937.1571,155.81519,1947.9418L155.81363,1947.9427C172.82964,1984.8489,193.40222,2019.3535,217.56229,2051.4326C221.06349,2056.0815,224.64572,2060.6316,228.25633,2065.1235L228.25406,2065.1245Q230.10985,2068.1396,231.976,2071.1487Q230.13307,2068.173,228.29726,2065.1877L228.29959,2065.1887Q236.61931,2075.5344,245.264,2085.3723L245.26155,2085.3733C331.72546,2183.879,442.49316,2244.7576,577.88184,2266.026C592.1433,2268.266,606.4003,2270.2495,620.4183,2270.2495C623.8874,2270.2495,627.34186,2270.128,630.7781,2269.859C685.08435,2265.6062,737.4512,2253.6677,788.39557,2239.4475L788.3877,2239.4485Q789.922,2239.0215,791.4544,2238.5906L791.4543,2238.5916C900.97784,2208.2664,1007.09143,2164.2722,1100.7714,2095.596L1100.774,2095.597L1100.7717,2095.5957L1100.7764,2095.5967L1100.7775,2095.596L1100.7793,2095.597L1100.7776,2095.5957L1100.7782,2095.5967Q785.7221,2025.2443,589.52026,1773.952Q580.8042,1762.69,572.4746,1751.174L572.4689,1751.1749Q550.79224,1704.2429,530.4735,1656.4199L391.31616,1255.7856Q385.65845,1235.3849,380.2767,1214.8965L380.27267,1214.8975Q345.10226,1080.9862,321.71762,943.33105Q986.00134,316.57245,1852.7369,74.73459L1852.7517,74.73559L1852.7461,74.73459L1852.7433,74.73559Q1730.5933,60.17292,1602.4932,56.940304 Z"/>
</g>
</g>
<g id="layer2">
<g style="fill:rgb(103,57,182); fill-opacity:1.0; stroke-linejoin: miter">
<path d="M4040.7422,-46.40041L4105.119,144.092L3972.109,144.74304L4040.7422,-46.40041 Z M4471.79,-133.86943Q4429.8267,-132.11984,4390.5264,-131.79393Q4373.8643,-131.65627,4356.6104,-131.76958Q4333.5684,-131.92094,4309.471,-132.52045L4309.4233,-132.52078L4310.109,-117.48963L4350.648,-104.18039Q4358.168,-101.44332,4358.5073,-92.357635Q4358.847,-80.83001,4359.191,-66.51381Q4359.2075,-52.20244,4359.229,-34.411293L4359.5645,246.9111Q4359.5884,267.60596,4359.2847,284.84076Q4359.3047,301.71844,4358.9976,315.4895Q4358.359,323.74945,4350.256,326.17926L4310.424,339.0022L4311.75,353.7716Q4352.884,352.64618,4392.1157,352.55603L4473.6187,352.36792Q4545.1904,352.20245,4629.608,353.04224L4631.574,350.6236L4639.26,226.85004L4624.5317,229.3316L4582.4214,321.08276L4423.9194,321.5089Q4423.2705,284.29468,4423.2705,245.98993L4423.2725,-36.241028L4423.2725,-36.24003Q4423.283,-36.24096,4423.6006,-58.960022Q4423.601,-82.37476,4423.9277,-94.6171Q4424.5835,-103.368576,4432.4434,-105.53046L4473.089,-118.812386L4471.79,-133.86943 Z M3162.6895,-106.42694Q3244.1968,-105.85845,3284.9683,-48.8315Q3326.5837,9.374354,3328.8157,117.78058Q3331.1865,232.90584,3294.348,286.82953Q3257.927,340.25366,3178.825,340.451Q3177.207,340.45502,3175.6045,340.43506Q3097.7568,339.46637,3055.648,281.82007Q3012.6309,223.2597,3009.6794,112.30123Q3006.771,2.9323506,3042.2993,-51.509113Q3077.6262,-105.765305,3159.1094,-106.42503Q3160.9094,-106.439354,3162.6895,-106.42694 Z M4073.209,-137.88615L4039.8022,-132.37509L3878.6296,290.1197Q3871.764,308.28375,3866.0847,316.85284Q3860.409,325.41858,3848.283,329.5531L3816.0781,340.227L3817.8455,354.90546Q3853.3477,353.79932,3882.1658,353.73297Q3897.983,353.69604,3918.8252,353.95648Q3935.9863,354.17096,3956.5571,354.58734L3955.7793,339.19678L3925.852,330.0349Q3919.7368,327.99823,3916.4995,324.92706Q3913.5864,322.1974,3913.5308,316.3792Q3913.4683,309.8761,3917.2104,298.56445Q3920.955,287.24738,3927.518,268.02783L3960.4585,176.15016L4115.9727,175.44873L4146.8525,267.63275Q4153.0835,286.1767,4156.6924,297.50476Q4159.975,308.48615,4160.0093,315.35333Q4160.04,321.53217,4157.1514,324.6292Q4154.584,327.38116,4148.144,329.79993L4117.5654,339.47992L4118.9395,354.21466Q4168.906,353.07086,4205.699,352.98602Q4226.2583,352.93854,4248.813,353.219Q4265.95,353.43213,4284.242,353.83447L4283.556,339.06836L4253.1187,329.52698Q4240.8154,325.4367,4233.996,316.8664Q4227.4985,308.63647,4219.325,284.9369L4073.209,-137.88615 Z M3823.9363,-128.49138Q3743.6592,-126.435165,3671.564,-125.83787L3585.7988,-125.12729Q3525.0325,-124.623795,3459.5747,-125.063805Q3447.3315,-125.1461,3434.924,-125.261635L3432.7378,-122.47539L3443.3225,1.0241854L3456.0403,-1.4725718L3482.8313,-93.479416L3595.9043,-94.372574L3601.2268,248.96768Q3601.8513,289.2705,3601.617,315.19818Q3601.4258,323.38074,3593.5068,325.78796L3546.6892,340.89453L3548.2021,355.52466Q3595.545,354.39465,3634.6833,354.30414Q3659.7202,354.24634,3689.7893,354.62335Q3705.2395,354.81708,3722.0205,355.12592L3721.1877,340.46265L3673.7727,325.57373Q3665.7683,323.2072,3665.3328,315.02008Q3664.3235,289.076,3663.7463,248.74106L3658.8242,-94.86959L3772.394,-95.76696L3794.1362,-1.334688L3806.981,-3.8431728L3825.9048,-125.725876L3823.9363,-128.49138 Z M2897.655,-120.80091Q2819.2378,-118.776665,2748.7913,-118.19305L2664.9827,-117.49866Q2605.6,-117.00668,2541.6138,-117.447685Q2529.65,-117.53016,2517.525,-117.64518L2515.4358,-114.89145L2527.9062,7.18032L2540.293,4.71305L2564.8948,-86.22684L2675.3896,-87.09991L2686.511,252.28067Q2687.8162,292.12256,2688.0337,317.7531Q2687.9875,325.84204,2680.289,328.22156L2634.7893,343.15424L2636.5193,357.61694Q2682.775,356.50165,2721.0278,356.41315Q2745.498,356.3567,2774.8938,356.73016Q2789.998,356.92212,2806.4038,357.22717L2805.337,342.73163L2758.738,328.01215Q2750.8738,325.67255,2750.3066,317.57904Q2748.8728,291.9319,2747.6118,252.05914L2736.874,-87.5856L2847.8503,-88.46248L2870.7292,4.8748765L2883.2393,2.396747L2899.6257,-118.067986L2897.655,-120.80091 Z M3175.0913,-134.44919Q3172.5005,-134.46637,3169.8813,-134.44455Q3058.8638,-133.50717,2998.0518,-63.539528Q2937.7986,5.7926645,2941.0935,123.914116Q2944.2412,236.7641,3003.7605,302.65216Q3061.4941,366.58142,3163.1702,367.88098Q3165.6433,367.9126,3168.143,367.90692Q3279.347,367.66766,3340.0757,295.8703Q3400.7546,224.10773,3398.473,105.75914Q3396.3147,-6.2330384,3336.3982,-70.92954Q3278.2136,-133.76543,3175.0913,-134.44919 Z"/>
</g>
<g style="fill:rgb(254,193,7); fill-opacity:1.0; stroke-linejoin: miter">
<path d="M4181.7373,459.27673Q4129.1875,459.27673,4083.5166,467.9384Q4068.6216,470.95267,4054.564,475.56866L4054.5344,475.56967C3825.9,531.62476,3656.2705,737.9238,3656.2705,983.8417C3656.2705,1272.8555,3890.563,1507.1477,4179.5767,1507.1477C4200.411,1507.1477,4220.9614,1505.9302,4241.16,1503.5623L4241.129,1503.5632Q4300.183,1499.6658,4345.3037,1490.6752Q4443.6377,1472.2675,4530.329,1419.7534Q4578.965,1390.8909,4626.293,1358.8779L4628.715,1358.8789L4628.715,898.4678L4628.6797,898.46875Q4400.866,898.46814,4173.0537,898.4685L4173.084,898.4695Q4173.084,1000.1638,4173.084,1101.8593Q4268.228,1101.859,4363.372,1101.8589L4363.4043,1101.8599Q4363.4043,1158.3594,4363.405,1214.8599L4363.372,1214.8608C4328.7524,1242.4395,4287.794,1262.4004,4243.034,1272.2053L4243.003,1272.2063Q4227.626,1273.7435,4211.6562,1273.7435Q4192.9614,1273.7435,4173.454,1271.6355Q4056.3333,1253.0994,3986.113,1163.1622Q3963.6138,1134.0906,3949.0479,1099.8079L3936.8057,1064.5626Q3926.717,1028.1847,3926.6035,988.63745Q3929.6663,867.2732,4010.2554,786.68396Q4090.8447,706.0947,4212.209,703.0321Q4270.8916,704.51294,4320.041,724.11926L4320.009,724.12024C4359.2627,745.3885,4393.1514,775.29694,4419.126,811.2946L4591.158,606.7305L4591.1934,606.7315Q4514.0947,553.63416,4467.4326,528.71796Q4352.5635,466.09753,4225.7646,460.7187Q4203.178,459.27673,4181.7373,459.27673 Z M3042.7153,461.172Q2990.1658,461.172,2944.4946,469.83365Q2929.5996,472.84793,2915.542,477.46393L2915.5125,477.46494C2686.878,533.52,2517.2485,739.8191,2517.2485,985.73694C2517.2485,1274.7507,2751.541,1509.043,3040.5547,1509.043C3061.3892,1509.043,3081.9395,1507.8254,3102.138,1505.4575L3102.1067,1505.4585Q3161.1611,1501.561,3206.2817,1492.5704Q3304.6157,1474.1627,3391.3071,1421.6487Q3439.943,1392.7861,3487.271,1360.7732L3489.6929,1360.7742L3489.6929,900.36304L3489.6577,900.364Q3261.8445,900.3634,3034.0315,900.3638L3034.0623,900.36475Q3034.0623,1002.0591,3034.0623,1103.7545Q3129.206,1103.7543,3224.3499,1103.7542L3224.3823,1103.7551Q3224.3826,1160.2546,3224.3828,1216.7551L3224.35,1216.7561C3189.7305,1244.3347,3148.772,1264.2957,3104.012,1274.1006L3103.9807,1274.1016Q3088.604,1275.6388,3072.6345,1275.6388Q3053.9395,1275.6388,3034.432,1273.5308Q2917.3113,1254.9946,2847.091,1165.0575Q2824.5918,1135.9858,2810.026,1101.7031L2797.7837,1066.4579Q2787.695,1030.08,2787.5815,990.5327Q2790.6443,869.16846,2871.2334,788.5792Q2951.8228,707.99,3073.1868,704.92737Q3131.8696,706.4082,3181.0193,726.0145L3180.987,726.0155C3220.2405,747.28375,3254.1294,777.1922,3280.104,813.1899L3452.1362,608.6258L3452.1711,608.6268Q3375.0725,555.5294,3328.411,530.6132Q3213.5413,467.9928,3086.7424,462.61395Q3064.1562,461.172,3042.7153,461.172 Z"/>
</g>
<g style="fill:rgb(103,57,182); fill-opacity:1.0; stroke-linejoin: miter">
<path d="M4525.883,1514.118Q4525.9023,1514.118,4525.9224,1514.1234L4525.9585,1514.1268L4526.285,1514.3883Q4527.925,1536.5657,4530.1396,1557.7656Q4532.206,1577.366,4534.3174,1594.1248Q4537.181,1618.9252,4545.879,1674.6013L4541.3438,1676.2794Q4540.2383,1668.9988,4539.1704,1660.6418Q4536.2827,1637.7693,4535.188,1628.1357Q4533.8306,1617.0034,4530.538,1583.517L4525.602,1524.1023Q4525.254,1517.5891,4525.326,1516.8096Q4525.4487,1514.118,4525.883,1514.118 Z M4143.715,1623.7708L4143.2246,1628.564L4142.72,1633.4891Q4137.2314,1645.7036,4123.174,1677.8337Q4126.8584,1666.5876,4131.143,1655.2607Q4140.3887,1631.6537,4143.674,1623.7708 Z M4547.685,1685.726L4547.7217,1685.9497Q4548.037,1687.8588,4548.3525,1689.7682L4543.681,1691.8761L4543.038,1687.6422L4542.9927,1687.6422Q4546.592,1686.2089,4547.685,1685.726 Z M4600.619,1706.1049L4600.6064,1706.1853Q4600.5913,1706.2931,4600.5527,1706.5277L4600.499,1706.8296L4600.52,1706.8307Q4600.562,1706.7748,4600.6045,1706.7185L4600.67,1706.6138L4600.7207,1706.5173Q4600.736,1706.4734,4600.7534,1706.429Q4600.761,1706.3885,4600.7686,1706.3481L4600.7686,1706.2755Q4600.759,1706.2433,4600.75,1706.2108Q4600.733,1706.1823,4600.7153,1706.1539Q4600.69,1706.1296,4600.665,1706.1049L4600.619,1706.106L4600.619,1706.1049 Z M4466.1895,1554.6249L4471.9277,1601.5493L4475.2227,1621.4492Q4475.386,1620.9646,4475.5713,1620.9646Q4476.0493,1620.9646,4476.67,1624.2068Q4484.1636,1671.2463,4485.3154,1678.1708Q4487.573,1692.036,4487.91,1693.5477Q4486.5605,1694.3427,4480.7964,1695.1481L4472.641,1690.9353Q4423.1113,1707.1841,4419.506,1707.1841Q4419.1323,1707.1841,4419.2515,1707.0099Q4430.867,1667.0298,4437.3813,1642.665L4466.1895,1554.6249 Z M4490.151,1706.3318L4490.1514,1706.3329L4490.584,1708.7291Q4490.5615,1708.7292,4490.539,1708.73Q4488.13,1709.4106,4485.721,1710.0919L4480.837,1710.9834L4479.9116,1709.8602L4480.463,1709.6882L4482.171,1709.1099Q4487.266,1707.348,4490.151,1706.3318 Z M4417.9805,1711.4016L4418.0684,1711.407Q4418.5815,1711.4576,4420.9043,1711.8402L4417.4116,1714.0328L4417.0547,1714.1526Q4417.4766,1712.7786,4417.8975,1711.4047L4417.9805,1711.4016 Z M4945.2515,1889.4476Q4945.284,1889.5164,4945.3247,1889.5164Q4945.3374,1889.5164,4945.351,1889.5098L4945.301,1889.4476 Z M4945.56,1889.822L4945.51,1889.8229Q4945.5273,1889.8708,4945.5435,1889.9188Q4945.561,1889.9609,4945.5786,1890.0032L4945.597,1890.0397L4945.616,1890.0763L4945.656,1890.1383L4945.6963,1890.1887L4945.7397,1890.2281Q4945.762,1890.2421,4945.784,1890.2565Q4945.8076,1890.2646,4945.831,1890.2732L4945.88,1890.2788Q4945.911,1890.2778,4945.9233,1890.2745L4945.56,1889.822 Z M4940.1763,1323.2079L4842.6143,1428.8403Q4827.8457,1443.8179,4778.108,1517.9707L4757.072,1477.3005L4754.899,1475.9939L4769.594,1511.6709L4762.408,1501.4344L4699.805,1385.4269Q4695.7617,1385.0411,4691.808,1385.0411Q4656.218,1385.0411,4627.8794,1416.2993L4653.7236,1474.5848Q4672.5967,1509.932,4690.339,1548.3623L4721.8315,1604.284Q4698.7056,1651.449,4681.87,1690.6648L4679.57,1701.0411Q4693.3203,1674.2383,4695.0474,1674.2383Q4695.2876,1674.2383,4695.295,1674.758L4660.645,1770.3047L4655.572,1790.0754Q4660.58,1812.9375,4660.078,1816.7374Q4658.9556,1823.5238,4657.2734,1829.9758L4648.8013,1852.735L4646.565,1863.1803Q4648.1177,1886.8396,4646.6035,1896.0137L4650.9404,1906.9058L4654.7935,1899.8896L4662.2295,1899.9116L4666.4287,1908.4144L4673.7554,1899.7441L4693.561,1859.8547Q4699.102,1855.6672,4703.5093,1855.6672Q4708.919,1855.6672,4712.621,1861.9756L4741.157,1784.6486L4781.3086,1693.5984L4908.7295,1864.2556L4941.05,1889.5088Q4929.228,1871.6447,4930.5327,1871.4907L4930.582,1871.4907Q4930.708,1871.5034,4930.923,1871.6357L4945.216,1889.3423L4945.216,1889.3423Q4944.7446,1887.4781,4946.6836,1865.6548L4945.2017,1856.4248Q4930.326,1834.4331,4927.0713,1822.556Q4927.1216,1818.2156,4928.406,1818.1714L4941.749,1818.4509Q4934.8003,1813.3943,4852.0337,1682.1244L4852.082,1682.1244L4947.959,1819.085Q4952.218,1818.8162,4957.0527,1812.1675L4874.4355,1691.7698Q4870.528,1680.2649,4867.246,1667.0037L4823.661,1597.5564L4863.477,1522.6692Q4873.9316,1504.213,4875.422,1504.213Q4875.5874,1504.213,4875.6426,1504.4409Q4924.454,1376.2672,4934.7793,1366.2386L4936.9517,1347.4111L4855.2026,1440.675Q4788.7896,1525.451,4786.356,1533.2169L4785.496,1531.7396L4828.562,1464.6198L4938.02,1337.8248L4940.1763,1323.2079 Z M4448.422,1411.7084L4444.8354,1412.6309L4437.841,1414.0574L4402.351,1502.3071Q4379.1763,1571.9563,4363.886,1622.7045L4351.007,1653.3677L4326.3843,1728.6147Q4319.8843,1753.0854,4296.876,1883.8687L4290.245,1891.7769Q4291.2134,1906.014,4295.3325,1922.5105Q4299.13,1937.4594,4314.9375,1949.3147Q4327.1074,1957.9861,4339.6826,1957.9861Q4344.9097,1957.9861,4350.207,1956.4878L4358.2915,1898.9714Q4358.5264,1898.7703,4358.7446,1898.7703Q4360.711,1898.7703,4361.3633,1915.0651L4370.3403,1889.7993Q4377.478,1853.981,4390.245,1803.7808Q4394.0835,1804.2037,4398.2866,1804.2037Q4436.1147,1804.2037,4503.4844,1769.937Q4519.639,1830.4944,4551.675,1925.1892Q4572.17,1980.0479,4600.1987,2024.6865Q4589.027,1999.9058,4548.505,1887.3094L4533.97,1831.5365L4534.0156,1831.5365Q4577.079,1946.9071,4585.0054,1964.3364Q4599.3047,1998.8665,4603.783,2003.3964L4603.8286,1995.3385Q4598.6523,1983.4164,4594.609,1970.3285L4594.655,1970.3285L4603.9453,1989.4214Q4605.2783,1967.1427,4612.25,1967.1427Q4613.025,1967.1427,4613.869,1967.4177L4615.941,1951.3918Q4599.377,1914.9438,4588.5205,1879.1776Q4568.0645,1812.1073,4553.1426,1745.1537L4557.6997,1742.987Q4589.6587,1882.9126,4616.7773,1941.9861Q4618.11,1928.1754,4614.413,1911.6497Q4606.6147,1897.2993,4599.279,1873.7993Q4595.7266,1854.3302,4597.2524,1851.9043Q4577.1763,1785.6082,4568.487,1737.301Q4580.2515,1731.8662,4593.389,1720.1327Q4599.7573,1713.5177,4600.427,1707.28L4600.3804,1707.28L4569.868,1725.3201Q4568.377,1725.9858,4567.4043,1725.9858Q4565.7954,1725.9858,4565.6055,1724.1652L4565.664,1721.8502L4585.64,1706.0363L4600.5967,1687.8636L4600.551,1687.8636Q4585.9224,1701.2201,4581.8486,1701.2201Q4581.3916,1701.2201,4581.0674,1701.0521Q4588.8325,1696.2528,4613.74,1667.6835L4609.1387,1664.4705L4610.2695,1653.3483L4610.223,1653.3483Q4608.134,1654.8347,4606.2383,1654.8347Q4604.503,1654.8347,4602.93,1653.5879L4611.841,1639.7612L4583.535,1669.4397L4559.3633,1683.6057L4558.7417,1679.8881L4586.1714,1658.8098Q4586.1724,1658.8098,4586.173,1658.8098Q4586.803,1658.8098,4588.94,1652.5432L4588.894,1652.5432L4557.146,1669.052Q4549.7495,1618.5248,4542.9995,1560.0294Q4514.098,1443.702,4514.929,1423.7098L4479.8564,1411.9609L4448.422,1411.7084 Z M3752.5967,1992.388Q3752.658,1992.388,3752.7148,1992.4138L3752.7812,1992.418L3753.5886,1992.6932L3741.0862,2055.5923Q3739.9436,2068.4702,3735.802,2091.751L3729.012,2117.049L3739.6387,2041.2633L3739.6016,2041.2643L3750.8005,1995.2632Q3751.9504,1992.388,3752.5967,1992.388 Z M4194.666,2015.7705L4194.787,2016.4948Q4195.795,2020.7062,4195.426,2056.3914L4199.348,2032.2933L4196.836,2050.3728L4183.9316,2132.6387Q4185.8594,2110.8699,4188.366,2079.742L4190.5864,2051.2166L4191.634,2037.0957L4191.5923,2037.0966L4194.624,2015.7705L4194.666,2015.7708L4194.666,2015.7705 Z M4186.6147,1458.4911L4181.107,1458.5109Q4158.789,1458.6063,4125.894,1460.218L4104.752,1500.9172L3970.582,1810.3477Q3948.0127,1854.5873,3922.1936,1880.803Q3904.8074,1863.9458,3885.8284,1770.5563Q3877.5793,1730.057,3875.1318,1704.915Q3869.4448,1656.6956,3864.7156,1579.99L3862.8538,1579.3973Q3863.1558,1579.2288,3863.5361,1579.2288Q3863.684,1579.2288,3863.8438,1579.2543L3860.4124,1564.4944L3730.5896,1573.8541L3724.56,1606.9231L3717.8286,1618.0884Q3722.3738,1620.046,3719.8499,1631.1567Q3711.9746,1639.4844,3709.8018,1647.6823L3705.5522,1674.5616Q3705.215,1673.727,3704.772,1673.727Q3700.7742,1673.727,3688.1592,1741.6782L3668.2944,1807.8392Q3671.2603,1803.1493,3672.4133,1803.1493Q3673.497,1803.1493,3672.9802,1807.291Q3661.8313,1855.3892,3659.0469,1880.1182Q3653.2563,1957.2871,3640.58,2029.5024L3639.0635,2059.754L3616.7214,2172.0557L3653.651,2187.6377L3652.1726,2199.1074L3661.083,2197.6985L3661.9165,2189.727L3669.7131,2189.6787L3668.9756,2196.1294L3704.1245,2189.099Q3704.465,2176.166,3713.0415,2147.5315L3713.0786,2147.5315L3707.6084,2188.3945L3731.659,2181.8872L3751.2007,2110.9878L3768.187,2028.025L3775.725,2009.3815Q3780.154,1973.5789,3791.973,1917.3577L3811.3137,1847.1691Q3840.429,1947.3099,3885.4258,1964.9215Q3901.342,1972.572,3920.3262,1972.572Q3929.385,1972.572,3939.1423,1970.8301Q3961.296,1969.1426,3999.0923,1933.7054Q4027.3503,1902.9142,4044.7793,1867.4447Q4055.9312,1848.6909,4141.242,1648.1521Q4141.3438,1648.0527,4141.4263,1648.0413L4141.468,1648.0413Q4143.946,1648.405,4126.786,1738.6084Q4127.824,1736.0487,4128.51,1736.0487Q4129.628,1736.0487,4129.8086,1742.8601Q4124.5845,1787.29,4123.3994,1814.8353Q4124.4624,1868.731,4117.5386,1972.3121Q4119.632,1979.3887,4118.7183,1993.476L4099.359,2191.3179L4111.425,2197.0933L4115.5103,2162.6765Q4115.717,2161.941,4115.9507,2161.941Q4116.235,2161.941,4116.5596,2163.026L4118.9897,2150.0513L4117.5767,2219.3389L4118.5366,2219.6782Q4118.6904,2219.8665,4119.05,2219.8665Q4122.8286,2219.8665,4149.3203,2198.9941Q4149.637,2198.9148,4150.0117,2198.9148Q4155.877,2198.9148,4175.817,2218.391L4179.496,2181.0225L4189.9746,2195.8286L4216.009,2032.3252Q4222.021,1965.6123,4224.4873,1950.7336Q4230.973,1926.5709,4231.076,1921.24L4231.118,1921.24L4233.8057,1934.6573Q4228.8984,1854.768,4248.845,1768.8473L4262.0347,1512.2854Q4262.5195,1492.6862,4259.29,1464.5801Q4230.6006,1458.7057,4186.6147,1458.4911 Z M4740.981,2230.1216L4740.9336,2230.1226L4740.798,2230.1963L4740.845,2230.1973L4744.8013,2237.6355L4744.8013,2237.6355Q4743.7827,2235.6912,4740.981,2230.1216 Z"/>
</g>
</g>
</svg>