<?xml version="1.0" encoding="utf-8"?>
<svg xmlns="http://www.w3.org/2000/svg" xmlns:xlink="http://www.w3.org/1999/xlink" version= "1.1" width="3178px" height="3180px" viewBox="-954 -478 3178 3180">
<g id="layer1">
<g style="fill:rgb(254,193,7); fill-opacity:1.0; stroke-linejoin: miter">
<path d="M341.84198,-237.73344L341.84198,-237.73244L341.84198,-237.73143L341.84198,-237.73042C139.42117,26.15635,10.853888,328.88956,-43.859898,670.46625L-43.8599,670.4672C-65.67793,668.6095,-87.832855,666.3557,-110.33124,666.8291C-358.50836,672.0507,-565.38184,757.79346,-731.024,920.9359C-728.2007,920.843,-725.37195,920.6201,-722.53754,920.68945C-537.89197,925.2082,-376.95404,975.0708,-239.71312,1069.8552L-239.71309,1069.8561L-239.71338,1069.857C-239.71353,1069.8563,-239.71368,1069.8562,-239.71387,1069.8564C-197.34433,1099.1177,-157.2344,1132.6735,-119.38391,1170.5239C-98.02817,1191.8796,-78.03946,1213.9545,-59.417946,1236.7484L-59.41854,1236.7494C-55.42591,1271.233,-50.578526,1305.4456,-44.87638,1339.3868C42.340443,1230.928,136.51749,1126.13,237.65479,1024.9929L237.65454,1024.9939C299.28842,963.35925,362.28186,904.3099,426.6348,847.84576C385.46497,816.16656,342.11252,788.6369,296.57748,765.2567L296.57452,765.2577C286.89676,679.59875,280.52603,592.8894,277.46234,505.1296L277.45956,505.1306C276.1602,467.8566,274.55386,430.38513,275.34854,392.74097C279.97034,173.80879,303.03836,-36.328426,341.84543,-237.73344L341.84198,-237.73244L341.84198,-237.73344L341.84198,-237.73244 Z M1905.8704,1397.7698L1905.8704,1397.7708L1905.8704,1397.7717L1905.8704,1397.7727L1905.8711,1397.7699L1905.8705,1397.7698L1905.8704,1397.7708L1905.8704,1397.7698L1905.8704,1397.7708 Z M228.26903,2065.1465L228.26903,2065.1475L228.26903,2065.1484L228.26903,2065.1494L228.26903,2065.1504C229.50076,2067.1497,230.73642,2069.1501,231.97597,2071.1487C230.73888,2069.1511,229.5042,2067.1504,228.27193,2065.1467L228.27135,2065.1477C228.2713,2065.1467,228.2713,2065.1465,228.2713,2065.1465L228.26903,2065.1475L228.26903,2065.1465L228.26903,2065.1475 Z M1980.7341,530.125L1980.7341,530.126L1980.7341,530.12695L1980.7341,530.1279C1911.9551,536.8899,1840.944,545.5462,1769.1539,562.6354C1426.9808,644.08765,1161.4113,796.401,970.8729,1013.0626C878.2488,1118.3857,813.746,1227.7535,777.3646,1341.1663C908.13104,1230.9601,1173.596,1062.1167,1238.4833,1141.3956C1331.3004,1254.7988,1113.2981,1491.6172,1028.4663,1585.8835C979.7509,1640.0168,834.7362,1730.2996,769.71014,1755.5585L769.7024,1755.5594L769.6947,1755.5604C750.36304,1761.373,729.9133,1764.2795,708.3455,1764.2795C707.9972,1764.2795,707.64856,1764.2786,707.2997,1764.2772L707.2926,1764.2782C707.2936,1764.2776,707.29456,1764.2772,707.2956,1764.2773L707.2885,1764.2783L707.2778,1764.2782L707.27814,1764.2792L707.2894,1764.2802C698.60474,1764.24,689.6892,1764.1152,680.69226,1762.7537C624.1145,1754.1914,578.9263,1727.6713,545.0855,1684.2354C534.1828,1670.2413,525.2848,1654.9198,518.25586,1638.3762L509.39435,1612.8639C508.66095,1610.2192,507.98218,1607.5574,507.35803,1604.8784C492.01343,1601.8853,480.86237,1598.9104,473.90485,1595.9541L473.9001,1595.9551L481.24356,1804.9082C453.35492,1804.4407,424.81015,1803.7714,396.04132,1799.5206C286.65326,1783.3579,189.3092,1747.1375,103.49384,1694.227C103.33307,1698.1909,103.10221,1702.1704,103.10558,1706.1692C103.149574,1758.327,109.7917,1808.3945,122.72765,1856.3724L146.27348,1926.0984C164.95013,1971.3127,188.6955,2013.1041,217.56229,2051.4326C221.06487,2056.0833,224.64853,2060.6353,228.26059,2065.129L228.26656,2065.1372C317.04297,2175.5723,433.45306,2243.3374,577.88184,2266.026C595.67267,2268.8206,613.45654,2271.2153,630.7781,2269.859C686.1718,2265.521,739.5476,2253.1865,791.4543,2238.5906L791.45734,2238.5916C919.47626,2203.1445,1042.8402,2149.0208,1147.1323,2058.6313C1272.9156,1949.6157,1330.4153,1830.1726,1392.657,1826.7736C1462.2795,1822.9716,1452.2516,1963.9004,1454.1447,2051.8354C1661.2455,1870.9458,1811.8157,1652.9236,1905.8551,1397.7689L1905.8704,1397.7698L1905.8633,1397.7689L1905.8638,1397.7699L1905.8705,1397.7698L1905.872,1397.7699L1905.8638,1397.7689L1905.8704,1397.7699L1905.8555,1397.768L1905.8696,1397.7689C1905.8662,1397.7635,1905.8628,1397.759,1905.8596,1397.7555C1946.2842,1288.07,1976.2622,1171.5231,1995.7936,1048.1149L2010.6322,827.5432C2008.0326,724.53284,1998.0732,625.39343,1980.7543,530.125L1980.7341,530.126L1980.7341,530.125L1980.7341,530.126 Z"/>
</g>
</g>
<g id="layer2">
<g style="fill:rgb(103,57,182); fill-opacity:1.0; stroke-linejoin: miter">
<path d="M1100.7727,2095.595L1100.7764,2095.5957L1100.7776,2095.5957L1100.7727,2095.595 Z M1100.774,2095.596L1100.7811,2095.5967L1100.7775,2095.596 Z M1602.4932,56.940304Q676.82227,80.29967,62.151184,694.97095Q-552.5201,1309.6425,-575.8794,2235.313Q-575.87354,2237.3647,-575.8641,2239.4155Q-378.10635,1753.7759,-44.87697,1339.3875Q-27.813688,1440.9497,-0.5467377,1539.2697L86.87074,1790.9445Q111.18718,1848.1766,138.6,1903.3751L137.57886,1900.3512L138.603,1903.3839L138.60301,1903.3839L138.6062,1903.3933L138.6062,1903.3933L138.60594,1903.3936L146.27348,1926.0984Q150.84149,1937.1571,155.81519,1947.9418L155.81363,1947.9418C172.82964,1984.8489,193.40222,2019.3535,217.56229,2051.4326C221.06349,2056.0815,224.64572,2060.6316,228.25633,2065.1235L228.25406,2065.1235Q230.10985,2068.1396,231.976,2071.1487Q230.13307,2068.173,228.29726,2065.1877L228.29959,2065.1877Q236.61931,2075.5344,245.264,2085.3723L245.26155,2085.3723C331.72546,2183.879,442.49316,2244.7576,577.88184,2266.026C592.1433,2268.266,606.4003,2270.2495,620.4183,2270.2495C623.8874,2270.2495,627.34186,2270.128,630.7781,2269.859C685.08435,2265.6062,737.4512,2253.6677,788.39557,2239.4475L788.3877,2239.4475Q789.922,2239.0215,791.4544,2238.5906L791.4543,2238.5906C900.97784,2208.2664,1007.09143,2164.2722,1100.7714,2095.596L1100.774,2095.596L1100.7717,2095.5957L1100.7764,2095.5957L1100.7775,2095.596L1100.7793,2095.596L1100.7776,2095.5957L1100.7782,2095.5957Q785.7221,2025.2443,589.52026,1773.952Q580.8042,1762.69,572.4746,1751.174L572.4689,1751.174Q550.79224,1704.2429,530.4735,1656.4199L391.31616,1255.7856Q385.65845,1235.3849,380.2767,1214.8965L380.27267,1214.8965Q345.10226,1080.9862,321.71762,943.33105Q986.00134,316.57245,1852.7369,74.73459L1852.7517,74.73559L1852.7461,74.73459L1852.7433,74.73459Q1730.5933,60.17292,1602.4932,56.940304 Z"/>
</g>
</g>
</svg>